<?xml version="1.0" encoding="utf-8"?>
<!-- Generator: Adobe Illustrator 15.1.0, SVG Export Plug-In . SVG Version: 6.00 Build 0)  -->
<!DOCTYPE svg PUBLIC "-//W3C//DTD SVG 1.1//EN" "http://www.w3.org/Graphics/SVG/1.1/DTD/svg11.dtd">
<svg version="1.1" id="Layer_1" xmlns="http://www.w3.org/2000/svg" xmlns:xlink="http://www.w3.org/1999/xlink" x="0px" y="0px"
	 width="1188.119px" height="1505.207px" viewBox="-511.5 400.5 1188.119 1505.207"
	 enable-background="new -511.5 400.5 1188.119 1505.207" xml:space="preserve">
<g>
	
	<g>
		<path fill="#58595B" d="M272.391,1775.422c-19.418,28.619-88.824,34.326-66.087,75.8c5.023,9.161,21.018,13.038,26.37,7.757
			c32.399-32.002,68.771-12.065,89.351-0.839c-0.742,10.284-9.109,12.952-10.34,22.748c-21.565-4.77-28.177-20.319-55.841-14.476
			c-30.318,24.726-90.028,17.083-80.651-39.291c8.079-48.544,103.541-43.967,76.519-111.675
			C279.673,1695.298,287.151,1753.659,272.391,1775.422z"/>
		
		<path fill="#58595B" d="M-118.473,1878.822c-8.955,0-12.076-0.234-18.606-4.139c-11.678-12.484,5.25-17.397,16.543-33.086
			c10.624-14.771,16.817-50.048,26.885-62.041c6.728-8.021,22.618-10.771,20.679-20.682c1.38-22.947-31.448-9.247-47.562,0
			c-4.079-0.397-4.629-6.404-8.275-8.271c-0.168-54.229,103.07-34.763,80.656,22.748
			C-82.069,1798.035-87.45,1851.253-118.473,1878.822z"/>
		
		<path fill="#58595B" d="M628.096,1862.278c-25.354,19.215-62.865,16.622-93.063,6.204c-27.579-9.515-42.625-28.375-39.291-59.972
			c1.878-17.786,26.22-57.671,47.565-70.317c19.279-11.42,73.134-29.498,90.994-12.405c5.437,5.198,23.167,51.511,24.814,62.039
			C664.189,1820.138,645.861,1848.809,628.096,1862.278z M582.601,1754.737c-5.473,0.951-14.002-1.737-18.612,0
			c-21.67,8.172-45.376,49.561-41.361,68.247c7.416,34.501,73.863,40.479,95.128,18.612c10.054-10.335,14.771-22.765,18.614-35.156
			c7.173-23.149-13.786-33.091-18.614-51.704C608.597,1743.592,594.629,1752.657,582.601,1754.737z"/>
		
		<path fill="#58595B" d="M-348.027,1752.67c-2.387,9.729-13.161,10.868-16.543,10.338c-8.632-17.848-40.225-18.497-46.525-0.975
			c-3.959,11.008-0.405,19.193,3.187,26.631c5.033,8.062,11.578,5.064,22.661,15.705c12.358,11.874,23.679,25.138,22.748,43.432
			c-1.336,26.206-20.853,55.896-49.633,57.905c-19.424-2.929-72.759,2.896-82.723-33.09c25.786-10.541,58.378,2.081,86.856,6.205
			c34.604-27.579-9.085-55.12-26.885-78.585c-7.496-9.882-5.875-25.348-6.205-37.229
			C-442.181,1723.258-356.643,1707.924-348.027,1752.67z"/>
	</g>


	<path fill="#58595B" d="M-4.339,400.5c-30.027,34.601-95.729,131.817-122.494,167.767
		c-124.022,166.558-253.412,337.621-367.487,495.306c0,1.771,0,3.551,0,5.326c205.715,145.929,424.595,323.172,639.106,489.98
		c179.864-207.803,514.651-665.751,514.651-665.751S17.114,414.685-4.339,400.5z M275.268,722.718
		c-28.084,70.429-67.666,241.377-152.854,187.717C26.532,850.037,234.651,787.531,275.268,722.718z M115.312,819.896
		c-135.168,123.346,107.85,181.968,142.707,10.26c123.213,3.076,175.521,11.438,251.589,12.392
		c-67.979,94.463-145.181,179.699-210.374,276.946C167.07,1018.947,15.452,904.666-120.357,802.588
		C-0.325,811.491,39.014,812.044,115.312,819.896z M-28.306,1380.463c-8.446-4.869-17.935-12.667-25.925-21.323
		c10.448-19.729,52.725-67.333,75.05-61.709c6.122,1.542,0.755,22.707-2.702,30.643C11.83,1342.486-14.286,1366.464-28.306,1380.463
		z M-12.329,1393.778c30-24.65,84.869-115.366,31.998-117.189c-47.168-1.621-65.122,44.657-93.868,67.24
		c-83.612-54.862-171.334-129.353-257.415-188.846c27.163-42.648,78.3-102.759,106.957-130.024
		c122.237,90.799,255.42,196.102,377.245,287.312c-24.729,36.196-78.159,96.839-103.668,126.775
		C24.658,1427.802,7.675,1409.277-12.329,1393.778z M400.427,1223.351c-0.179-0.183-0.315-0.318-0.247-0.251
		C400.11,1223.031,400.248,1223.168,400.427,1223.351c0.437,0.437,0.583,0.584,0.58,0.58
		C401.01,1223.935,400.862,1223.786,400.427,1223.351z M467.001,1130.148c-0.182-0.184-0.319-0.319-0.251-0.251
		C466.682,1129.829,466.819,1129.966,467.001,1130.148c0.437,0.436,0.584,0.583,0.58,0.58
		C467.585,1130.731,467.438,1130.584,467.001,1130.148z M488.303,1108.843c-0.178-0.179-0.314-0.315-0.25-0.247
		C487.987,1108.526,488.125,1108.664,488.303,1108.843c0.438,0.439,0.588,0.587,0.581,0.58
		C488.891,1109.43,488.739,1109.282,488.303,1108.843z M496.293,1106.182c-0.179-0.182-0.314-0.318-0.25-0.251
		C495.979,1105.862,496.114,1106,496.293,1106.182c0.438,0.437,0.584,0.584,0.58,0.58
		C496.877,1106.766,496.729,1106.617,496.293,1106.182z M150.108,1521.598c-24.492-20.773-50.865-39.672-77.223-58.584
		c22.538-43.146,92.694-121.509,121.869-158.019c-7.979-5.305-284.297-227.323-430.064-325.305
		c-25.566,31.668-83.563,119.477-120.272,153.986c-42.776-32.48-65.524-46.478-102.391-79.532
		c46.487-52.039,285.183-402.488,387.059-528.485c-1.848,2.149,58.632-69.353,75.409-90.892
		c31.252,15.795,52.297,41.3,81.706,58.938C12.201,601.673-73.348,698.092-150.8,802.604
		c8.082,8.805,427.608,334.684,446.082,353.488c16.021-21.322,170.246-208.473,243.614-308.219
		c16.057,14.448,58.107,38.556,82.552,61.249C523.811,1040.747,213.013,1447.686,150.108,1521.598z"/>
</g>
</svg>
